<svg width="32" height="32" viewBox="0 0 32 32" fill="none" xmlns="http://www.w3.org/2000/svg">
<rect width="32" height="32" rx="10" fill="white"/>
<rect width="32" height="32" rx="10" fill="#DD2330"/>
<path fill-rule="evenodd" clip-rule="evenodd" d="M10.2216 20.3156C9.06718 19.0621 8.65745 17.1314 9.31176 15.1538L10.5142 11.5194C11.5101 8.50902 14.5967 6.52813 17.407 7.0976C18.6234 7.34355 19.589 8.02675 20.2124 8.96675C20.1284 8.82885 20.0097 8.67397 19.8498 8.49225L21.8439 10.758C22.948 12.0131 23.3299 13.9074 22.6886 15.8466L21.4862 19.481C20.4902 22.4913 17.4026 24.4719 14.5922 23.9024C13.5914 23.7001 12.7611 23.2023 12.1512 22.5096L12.1515 22.5085L10.2216 20.3156ZM12.2026 12.5836L14.8465 13.1185L16.2214 8.96302C16.3083 8.69894 16.5579 8.58325 16.7563 8.6231C16.8927 8.6507 17.0058 8.75255 17.0253 8.9309L17.804 16.1461L15.1522 15.6097L13.778 19.7629C13.6912 20.027 13.4416 20.1427 13.2432 20.1028C13.1068 20.0752 12.9937 19.9734 12.9745 19.7939L12.2026 12.5836Z" fill="white"/>
</svg>
