<svg width="39" height="48" viewBox="0 0 39 48" fill="none" xmlns="http://www.w3.org/2000/svg">
<path fill-rule="evenodd" clip-rule="evenodd" d="M3.40308 37.597C0.187135 34.0577 -0.954254 28.6063 0.868462 23.0224L4.21801 12.7606C6.99255 4.26077 15.5908 -1.33233 23.4196 0.275564C26.808 0.970031 29.498 2.89905 31.2346 5.55318C31.0004 5.16382 30.6699 4.72649 30.2246 4.2134L35.7795 10.6109C38.8552 14.1547 39.9189 19.5034 38.1324 24.9786L34.7829 35.2404C32.0083 43.7403 23.4071 49.3323 15.5783 47.7244C12.7904 47.1531 10.4774 45.7477 8.77829 43.7919L8.77931 43.7887L3.40308 37.597ZM8.92165 15.7656L16.2867 17.2756L20.1169 5.54263C20.3588 4.79699 21.0541 4.47034 21.6069 4.58286C21.9867 4.66081 22.3019 4.94837 22.3561 5.45195L24.5254 25.8242L17.1384 24.3097L13.3102 36.0364C13.0683 36.782 12.373 37.1087 11.8202 36.9962C11.4404 36.9182 11.1252 36.6307 11.072 36.1239L8.92165 15.7656Z" fill="#FF0000"/>
</svg>
