<svg width="42" height="42" viewBox="0 0 42 42" fill="none" xmlns="http://www.w3.org/2000/svg">
<rect x="0.5" y="0.5" width="41" height="41" rx="13.5" stroke="white" stroke-opacity="0.5"/>
<path d="M29.0247 14.4511L26.1692 28.0465C25.9561 28.9841 25.3595 29.2398 24.5497 28.771L20.16 25.532L18.0717 27.5777C17.8159 27.8334 17.6455 28.0039 17.1767 28.0039L17.475 23.5289L25.6152 16.1985C25.9987 15.9002 25.5299 15.6871 25.0611 16.028L15.0031 22.3356L10.6986 21.0144C9.761 20.7161 9.71839 20.0768 10.8691 19.608L27.8314 13.0873C28.5985 12.789 29.2804 13.2578 29.0247 14.4511Z" fill="white" fill-opacity="0.5"/>
<path d="M29.0247 14.4511L26.1692 28.0465C25.9561 28.9841 25.3595 29.2398 24.5497 28.771L20.16 25.532L18.0717 27.5777C17.8159 27.8334 17.6455 28.0039 17.1767 28.0039L17.475 23.5289L25.6152 16.1985C25.9987 15.9002 25.5299 15.6871 25.0611 16.028L15.0031 22.3356L10.6986 21.0144C9.761 20.7161 9.71839 20.0768 10.8691 19.608L27.8314 13.0873C28.5985 12.789 29.2804 13.2578 29.0247 14.4511Z" fill="white" fill-opacity="0.5"/>
</svg>
